<svg width="777.547" height="229.52" xmlns="http://www.w3.org/2000/svg"><g fill="none" stroke="#000"><g transform="matrix(.28513 0 0 .28513 -22.126 -20.59)" stroke-width="27.505"><circle cx="398.297" cy="389.96" r="87.503"/><path d="M397.145 342.732c23.816-1.221 47.074 12.921 50.107 51.47" stroke-linecap="round"/><circle cx="634.105" cy="155.984" r="70.022"/><path d="M632.14 126.793c10.96-.48 28.946 3.716 31.02 30.063M460.847 329.98l122.996-124.77" stroke-linecap="round"/><circle cx="662.453" cy="656.294" r="39.022" stroke-linecap="round"/><circle cx="417.839" cy="606.875" r="39.696" stroke-linecap="round"/><circle cx="141.709" cy="508.825" r="50.358" stroke-linecap="round"/><circle cx="221.881" cy="215.456" r="38.548" stroke-linecap="round"/><path d="M191.879 485.649l121.238-54.119" stroke-width="25.029" stroke-linecap="round"/><path d="M460.236 453.026l175.272 173.908M403.747 476.871l10.601 89.912M336.137 329.023l-84.918-82.997M141.787 498.595s13.46 3.098 11.856 12.28" stroke-linecap="round"/></g><text x="549.129" y="339.375" font-size="104.52" stroke-width="1.134" stroke-linecap="round" transform="translate(-89.147 -198.332)"><tspan x="549.129" y="339.375" style="-inkscape-font-specification:Comfortaa;text-align:center" font-weight="400" font-family="Comfortaa" text-anchor="middle" fill="#000">Medihealth</tspan></text><text style="-inkscape-font-specification:Comfortaa" x="626.906" y="426.589" font-weight="400" font-size="80.214" font-family="Comfortaa" stroke-width=".378" stroke-linecap="round" transform="translate(-89.147 -198.332)"><tspan x="626.906" y="426.589" style="-inkscape-font-specification:Comfortaa;text-align:center" text-anchor="middle" fill="#000">Solutions</tspan></text><path d="M179.84 24.682h592.983V224.61h-31.256M95.772 167.98v56.815h237.972" stroke-width="9.449" stroke-linecap="round" stroke-linejoin="round"/></g></svg>